<svg xmlns="http://www.w3.org/2000/svg" xmlns:xlink="http://www.w3.org/1999/xlink" width="300" height="300" viewBox="0 0 300 300">
  <defs>
    <clipPath id="clip-Web_1920_9">
      <rect width="300" height="300"/>
    </clipPath>
  </defs>
  <g id="Web_1920_9" data-name="Web 1920 – 9" clip-path="url(#clip-Web_1920_9)">
    <g id="Group_15" data-name="Group 15" transform="translate(-228.409 -364.975) rotate(11)">
      <g id="Shape_62" data-name="Shape 62" transform="translate(363 292.979)">
        <path id="Path_4" data-name="Path 4" d="M289.7,645.243c3.929,3.16,6.141,7.935,8.119,12.572s3.956,9.464,7.6,12.947,9.492,5.231,13.823,2.651c-3.433,2.771-8.634,2.486-12.435.245s-6.4-6.069-8.331-10.037-3.314-8.192-5.4-12.079a4.623,4.623,0,0,0-2.548-2.569,51.3,51.3,0,0,1-23.965-14.2L294.5,632.44c4.435-.37,8.923-.75,13.137-2.184l24.632-8.385c.489-.167,1.209-.223,1.349.274a.929.929,0,0,1-.059.528c-1.155,3.57-3.791,6.426-5.885,9.54s-3.716,7.011-2.5,10.56a29.106,29.106,0,0,1,1.187,14.093l-3.331-18.728a3.9,3.9,0,0,0-.9-2.221c-.923-.879-2.4-.645-3.644-.351l-26.253,6.2a4.882,4.882,0,0,0-2.435,1.08,1.684,1.684,0,0,0-.1,2.392M321.771,628a59.456,59.456,0,0,1-25.722,7.651c-1.891.141-3.787.207-5.682.273l-9.974.348a11.694,11.694,0,0,0,6.085,1.445,74.767,74.767,0,0,0,26.952-3.973c4.228-1.449,8.583-3.5,10.9-7.318-.848.533-1.7,1.066-2.558,1.574m-4.809.136a1.486,1.486,0,0,0-1.248.842C316.372,629.042,317.355,628.653,316.962,628.138Z" transform="translate(-172.626 -402.65)" fill="none" stroke="#fff" stroke-linecap="round" stroke-width="15"/>
        <path id="Path_5" data-name="Path 5" d="M192.991,583.878c-2.863,4.384-5.8,8.841-9.858,12.145-5.019,4.081-11.384,6.094-17.673,7.609-6.8,1.637-13.906,2.8-20.748,1.369-4.675-.976-9.011-3.119-13.289-5.241-11.764-5.836-23.591-11.709-34.215-19.428s-20.085-17.449-25.664-29.336c-1.278-2.723-3.855-6.135-6.472-4.653-3.712,2.1-8-1.578-10.456-5.067A89.082,89.082,0,0,1,41.507,513.32c-.932-3.45-.977-9.9,1.357-12.6,6.688-8.97,6.284,33.962,17.889,44.771,1.633,1.521,4.525-.2,4.936-2.393s-.722-4.344-1.742-6.329-1.979-4.281-1.229-6.383a126.818,126.818,0,0,0,19.015,32.5,86.776,86.776,0,0,0,13.893,14.023c5.909,4.623,12.554,8.2,19.162,11.751l14.868,7.991c4.753,2.554,9.576,5.136,14.83,6.365,6.822,1.6,14,.81,20.8-.894,6.541-1.64,13.025-4.218,17.992-8.779,3.639-3.342,6.3-7.589,8.913-11.781l10.039-16.1c4.962-7.956,9.96-15.987,13.153-24.8s4.482-18.6,1.861-27.6c-.468-1.607-.559-4.044,1.105-4.226a55.9,55.9,0,0,1-.888,32.571c-2.408,7.141-6.238,13.707-10.184,20.128C202.649,569.065,197.824,576.475,192.991,583.878Z" transform="translate(-26.349 -325.791)" fill="none" stroke="#fff" stroke-linecap="round" stroke-width="15"/>
        <path id="Path_6" data-name="Path 6" d="M408.626,454.834l1.558,1.333-3.379.788c-3.886.906-8.359,1.7-11.547-.7-3.38-2.546-3.673-7.423-3.662-11.655a18.249,18.249,0,0,0-3,10.5c-.284.516-1.015-.15-1.137-.726a12.872,12.872,0,0,1,2.321-9.889,21.129,21.129,0,0,1,8.039-6.508,31.808,31.808,0,0,1,29.167.774,5.127,5.127,0,0,1,2.179,1.913,1.976,1.976,0,0,1-.554,2.6c-.948.521-2.086-.126-3-.7a27.363,27.363,0,0,0-9.294-3.656,17.658,17.658,0,0,1,1.177,11.3c-.606,2.625-2.286,5.444-4.969,5.684a9.654,9.654,0,0,0,1.587-9.749,12.718,12.718,0,0,1-5.484,8.694m-9.825-14.8a2.828,2.828,0,1,0,2.673,3.054A2.936,2.936,0,0,0,398.8,440.036Z" transform="translate(-250.773 -281.583)" fill="none" stroke="#fff" stroke-linecap="round" stroke-width="15"/>
        <path id="Path_7" data-name="Path 7" d="M193.135,432.4a81.507,81.507,0,0,0,17.475-1.164c1.357-.239,2.412,1.47,2.048,2.8a5.153,5.153,0,0,1-2.813,2.868c-11.063,5.883-25.133-.043-37,3.989-3.061,1.04-5.889,2.724-9.006,3.583-.635.175-1.488.223-1.774-.37-.248-.513.145-1.093.516-1.526,2.793-3.261,5.748-6.547,9.593-8.456C178.533,430.971,186.046,432.111,193.135,432.4Z" transform="translate(-104.906 -279.258)" fill="none" stroke="#fff" stroke-linecap="round" stroke-width="15"/>
        <path id="Path_8" data-name="Path 8" d="M388.06,362.111l15.1-7.882c3.437-1.794,7.274-3.643,11.034-2.7,2.947.738,5.2,3.051,7.283,5.262a3.339,3.339,0,0,1,1.186,2.177c-.016.849-1.122,1.611-1.73,1.019-2.817-2.742-7.445-2.634-11.071-1.115s-6.642,4.174-10.008,6.206A32.431,32.431,0,0,1,389.3,369.14c-1.751.34-3.942.352-4.878-1.166a3.252,3.252,0,0,1,.486-3.621A9.538,9.538,0,0,1,388.06,362.111Z" transform="translate(-248.719 -227.487)" fill="none" stroke="#fff" stroke-linecap="round" stroke-width="15"/>
        <path id="Path_9" data-name="Path 9" d="M208.787,518.225a76.984,76.984,0,0,1-33.9,5.352c-.874-.061-2-.384-2.023-1.26a190.345,190.345,0,0,0,40.762-8.792c.829-.277,1.9-.494,2.443.192A18.89,18.89,0,0,1,208.787,518.225Z" transform="translate(-111.949 -332.39)" fill="none" stroke="#fff" stroke-linecap="round" stroke-width="15"/>
        <path id="Path_10" data-name="Path 10" d="M341.584,586.356a8.377,8.377,0,0,1-4.393-1.618,3.752,3.752,0,0,1-1.229-4.243c.8-.11,1.777-.153,2.254.5a7.972,7.972,0,0,0,5.213,2.961,17.136,17.136,0,0,0,6.108-.328c4.13-.831,8.655-2.822,9.863-6.858.88-2.938-.295-6.077-1.668-8.819.558-.6,1.508.141,1.916.85,2.206,3.834,2.484,9.132-.514,12.385a11.831,11.831,0,0,1-2.66,2.063A23.378,23.378,0,0,1,341.584,586.356Z" transform="translate(-217.403 -367.668)" fill="none" stroke="#fff" stroke-linecap="round" stroke-width="15"/>
        <path id="Path_11" data-name="Path 11" d="M60.252,530.913a35.281,35.281,0,0,0-6.456-7.638,35.223,35.223,0,0,0-4.352-2.853c-.648-.381,4.307-.331,3.659-.711,1.492-.848-2.227-.6-.749.275a21.135,21.135,0,0,1,8.974,10.691Z" transform="translate(-30.761 -336.037)" fill="none" stroke="#fff" stroke-linecap="round" stroke-width="15"/>
        <path id="Path_12" data-name="Path 12" d="M540.052,403.948a3.662,3.662,0,0,0-1.764,2.563L537.2,406.5a3.354,3.354,0,0,1,.434-3.092,13.192,13.192,0,0,0,1.584-2.833,3.864,3.864,0,0,0-1.624-4.235c.2-.7,1.283-.339,1.749.22,3.11,3.735,1.414,9.39,2.6,14.1l-1.395.083A23.019,23.019,0,0,0,540.052,403.948Z" transform="translate(-347.749 -256.419)" fill="none" stroke="#fff" stroke-linecap="round" stroke-width="15"/>
        <path id="Path_13" data-name="Path 13" d="M427.719,733.872a25.858,25.858,0,0,0,2.231-9.507,2.523,2.523,0,0,1,.252-1.237.817.817,0,0,1,1.087-.342,20.686,20.686,0,0,1-2.522,11.01A.712.712,0,0,1,427.719,733.872Z" transform="translate(-276.994 -468.015)" fill="none" stroke="#fff" stroke-linecap="round" stroke-width="15"/>
        <path id="Path_14" data-name="Path 14" d="M159.821,13.395c.7-3.541,6.583-3.437,8.3-.263s.24,7.189-2.012,10.009-5.242,5.039-7.163,8.094c8.511-1.657,17.2,3.9,21.544,11.4s5.158,16.518,5.064,25.188-.989,17.4.345,25.971c.817,5.242,2.462,10.37,2.687,15.67a71.277,71.277,0,0,1-.692,10.452,170.442,170.442,0,0,0,1.239,44.948c-3.74-8.942-4.37-18.817-5.874-28.392a152.284,152.284,0,0,0-7.835-29.781C171.635,96.584,165.607,85.87,155.2,83c-9.369-2.588-19,2.049-28.045,5.6a133.535,133.535,0,0,1-40.466,8.967c-9.376.582-18.887.181-28.053,2.242S40.381,106.917,36.3,115.38c-2.848,5.91-2.937,12.721-2.971,19.281l-.132,25.5c-.05,9.588-.023,19.544,4.043,28.228,1.1,2.349,2.52,4.917,1.712,7.382s-5.326,2.991-5.535.405a34.679,34.679,0,0,0-9.47-21.031c-2.391-2.489-3.048-6.114-3.735-9.5A129.388,129.388,0,0,0,9.995,135.278C7,129.066,3.412,122.633,4.008,115.764,4.937,105.058-2.417,94.273.836,84.031c1.325-4.172,4.342-8.6,2.332-12.491C.336,66.06,2.327,59.33,5.234,53.89A58.378,58.378,0,0,1,38.881,26.028c1.657-.519,3.934-.713,4.672.858l-2.194,5.167c11.015-8.648,26.852-9.949,36.73-19.876C82.791,7.453,86.666.565,93.311.032c2.384-.191,11,3.643,13.491,4.826,5.239,2.481,4.064,4.131,9.846,2.638A34.586,34.586,0,0,1,131.775,7.1a33.8,33.8,0,0,1,12.734,5.313c2.534,1.742,4.933,3.876,7.918,4.615s6.8-.621,7.394-3.638m-83.971,3.6a21.614,21.614,0,0,0-4.712,5.084,6.05,6.05,0,0,0,2.709.087,3.345,3.345,0,0,0,1.082,1.408l.921-6.579m69.588,21.66c.755.771,1.608-1.479,2.656-1.225a3.865,3.865,0,0,0,.505.174c.446.044.693-.478.928-.859,1.5-2.429,5.987-.786,7.667-3.1a.629.629,0,0,1-.155,1.075,3.123,3.123,0,0,0,1.836.129c.589-.2,1.026-.949.685-1.471-1.3-1.452-3.627-1.127-5.508-.609a73.812,73.812,0,0,0-8.389,2.862,2.5,2.5,0,0,0-1.2.807.881.881,0,0,0,.24,1.268,2.473,2.473,0,0,1,1.916-1.093A1.861,1.861,0,0,1,147,37.687a3.421,3.421,0,0,1-3.5.4l.679.975a3.806,3.806,0,0,0-1.342,1.051,1.3,1.3,0,0,0,0,1.589c.4.415,1.271.239,1.332-.331a.954.954,0,0,1-.356-1.063,2.777,2.777,0,0,0,1.619-1.661M84.319,9.471a2.917,2.917,0,0,0,3.6-.943c.951-.444,1.959.5,2.486,1.408s1.115,2.014,2.161,2.105a14.191,14.191,0,0,0,1.6-.224c.541-.016,1.181.42,1.022.937a3.122,3.122,0,0,0,.6,2.893c.831-.1,1-1.2,1.115-2.027s.953-1.821,1.6-1.286l.561,1.2a1.57,1.57,0,0,0-.729,1.043l1.271.378.446,3.508c1.094.265,1.35,1.68,1.386,2.8.824-.189.659-1.42.246-2.158s-.784-1.857-.043-2.263c-.866-.051-1.217-1.122-1.348-1.979-.42-2.74-1.651,1.87-2.071-.87-.115-.749-4.59-1.577-5.181-2.052s15.122,2.644,15.54,2.011c-1,.226-13.686-10.48-14.682-10.254A1.745,1.745,0,0,1,93.78,2.6c-1.955-.693-4.01.639-5.574,2a46.326,46.326,0,0,0-5.651,5.876c-.453.562-.884,1.423-.371,1.931.333.288.605-.384.724-.808a1.336,1.336,0,0,1,2.454.047,3.339,3.339,0,0,0-1.044-2.174m-39.927,36.4.92.968a5.268,5.268,0,0,1,4.423-.43A4.315,4.315,0,0,0,47.494,44.2l7.583-2.29-3.1,3.865a1.673,1.673,0,0,0-1.212-.2l.828,1.645,4.736-5.405c1.1,1.192,2.911,1.329,4.535,1.387l4.691.168c.486-.417-.252-1.112-.866-1.292a30.858,30.858,0,0,0-23.779,2.87A60.966,60.966,0,0,0,35.018,49L27.365,54.72A3.814,3.814,0,0,0,26,56.18l8.742-3.834c1.4-.615,2.914-1.332,3.583-2.708.736.144,1.9-.28,1.495-.908a1.594,1.594,0,0,1,1.254.242,2.5,2.5,0,0,0,.832-2.676,1.616,1.616,0,0,1,1.318.207,3,3,0,0,1,4.031-1.913l-2.864,1.277M161.639,17.862a2.767,2.767,0,0,0,1.429.108.953.953,0,0,0,.728-1.08c-1.079,1.173-3.767-.294-4.338,1.2-.415,1.083-1.784,1.437-2.942,1.383a9.218,9.218,0,0,0-3.452.025,13.793,13.793,0,0,0,9.662,1.747c1.026-.2,1.285-1.524,1.318-2.567a3.534,3.534,0,0,1-3.009.343l.6-1.153M40.97,32.684c-.245-.533-1.051-.265-1.524.082a59.651,59.651,0,0,0-10.222,9.54,11.09,11.09,0,0,0-2.74,4.815c2.042-.63,3.282-2.628,4.492-4.389A39.532,39.532,0,0,1,40.97,32.684M10.92,60.972a1.861,1.861,0,0,1,1.517-.941l-2.086-1.043a22.165,22.165,0,0,1,.248-8.351,13.349,13.349,0,0,0-2.268,5.749,1.56,1.56,0,0,0,.247,1.337,2.9,2.9,0,0,1,.674,2.9A8.889,8.889,0,0,0,11.591,62.7a10.241,10.241,0,0,0,3.983.949.711.711,0,0,0,.578-.111c.145-.142.044-.472-.153-.422l-5.08-2.14M125.851,13.227a4.25,4.25,0,0,0,3.849-.3,11.033,11.033,0,0,1,8.567-1.285,5.891,5.891,0,0,0-6.906-.813c-.4.239-.866-.15-1.263-.4s-1.151-.123-1.039.331c.176.715-.666,1.244-1.382,1.415s-1.593.35-1.826,1.049m-6.71-3.292a36.374,36.374,0,0,0,3.643-.831,3.371,3.371,0,0,1,3.391,1.015c-.021-.611.9-.613,1.492-.443s1.54-.127,1.269-.675c-4.343-1.081-9.249-1.1-12.953,1.416.686-.187,1.33.37,2.013.566s1.655-.551,1.147-1.048M54.55,29.191,50.7,31.63a2.515,2.515,0,0,0-.673.545,1.3,1.3,0,0,0,.2,1.739l2.588-1.367a3.4,3.4,0,0,0,1.736-3.357m39.742-4.884a2.5,2.5,0,0,0,.782-1.847,1.966,1.966,0,0,1-2.486-2.246c-.329-.431-.877.338-.793.873a4.3,4.3,0,0,0,2.5,3.219M155.251,39.07a1.949,1.949,0,0,0,.935-1.556c.27-.521,1.03-.024,1.414.419s1.389.565,1.292-.013a3.1,3.1,0,0,0-4.965.587l1.324.563M123.743,16.237a2.122,2.122,0,0,0,2.318-2.195l-3.709,1.8a.884.884,0,0,0,1.39.506M166.1,18.507a3.819,3.819,0,0,0,.065-1.981c-.26-.618-1.357-.808-1.513-.156a3.125,3.125,0,0,1,.72,3.285,1.749,1.749,0,0,0,.992-1.188m-47.394,3.09c.714-.167.487-1.461-.245-1.508a1.132,1.132,0,0,0-.944,1.573.775.775,0,0,0,1.172-.17M63.088,48.936a2.291,2.291,0,0,1,1.671,1.121c.58.094.856-.825.47-1.267a2.2,2.2,0,0,0-1.63-.518c-.368-.014-.876.4-.546.562M15.515,44.144a.5.5,0,0,0,.218-.814A8.7,8.7,0,0,0,13.2,46.947a5.251,5.251,0,0,0,2.131-2.816M88,15.86a1.4,1.4,0,0,0,.616,2.114l.519-1.267-1.2-.854m-33.094,30.7a3.5,3.5,0,0,0,2.308-1.778,5.446,5.446,0,0,0-2.53,1.521m5.681.386-1.088.327a1.983,1.983,0,0,0,1.96.494.79.79,0,0,0,0-1.05l-.893.107m6.883-1.881c.2.169.522-.09.5-.349a.876.876,0,0,0-.465-.591l-1.249.45a.727.727,0,0,0,1.24.549m2.927,1.2a.9.9,0,0,0-.339-1.094.687.687,0,0,0-.985.413,1.753,1.753,0,0,0,1.368.68M12.95,48.06c-.153-.408-.813-.367-1.067-.012a1.573,1.573,0,0,0-.11,1.264,2.318,2.318,0,0,0,.955-1.24m66.411-31.9,1.27-.852a.857.857,0,0,0-1.393,0,.917.917,0,0,0,.106.873M165.058,13c.1-.2-.282-.338-.415-.161a.638.638,0,0,0,.03.63,5.525,5.525,0,0,0,.843,1.332,4.2,4.2,0,0,0-.42-1.778M141.158,38.737c-.388-.11-.311.7.091.683s.63-.459.775-.836a.506.506,0,0,0-.825.158m21.05-4.96-.32,1.093c.378-.1.808-.257.937-.627s-.425-.814-.641-.487m-59.639-7.905a1.389,1.389,0,0,0-1.4,0,.753.753,0,0,0,1.345,0m17.276-7.749c.219-.3-.4-.593-.654-.329a.985.985,0,0,0,.221.958l.537-.537m-25.1-.782c.473.05.941-.623.543-.884-.378-.19-.582.461-.506.877m-3.209-1.72a.418.418,0,1,0,.4-.568l-.473.467m25.017-1.342c.065.523,1.027.505,1.073-.019a.775.775,0,0,0-1.012.011Z" transform="translate(0.218 -4.117)" fill="none" stroke="#fff" stroke-linecap="round" stroke-width="10"/>
        <path id="Path_15" data-name="Path 15" d="M293.677,689.3c.4.332.838.782.716,1.286a38.536,38.536,0,0,1-9.335-7.458c.695-.321,1.468.2,2.056.69Z" transform="translate(-184.605 -442.336)" fill="none" stroke="#fff" stroke-linecap="round" stroke-width="15"/>
        <path id="Path_16" data-name="Path 16" d="M535.987,483.787c.567-.13.9.611,1,1.185l1.541,8.864c-.175.53-.942-.047-1.1-.583A37.262,37.262,0,0,1,535.987,483.787Z" transform="translate(-347.108 -313.293)" fill="none" stroke="#fff" stroke-linecap="round" stroke-width="15"/>
        <path id="Path_17" data-name="Path 17" d="M550.17,497.433a1.394,1.394,0,0,1-.975.175c-.09-2.172-.493-20.526-.447-22.7a2.866,2.866,0,0,1,1.422,0C550.438,477.305,550.216,495.259,550.17,497.433Z" transform="translate(-355.628 -318.978)" fill="none" stroke="#fff" stroke-linecap="round" stroke-width="15"/>
        <path id="Path_20" data-name="Path 20" d="M534.853,478.684a1.268,1.268,0,0,1-.82-1.661.876.876,0,0,1,.839-.171,1.952,1.952,0,0,1,0,1.753Z" transform="translate(-345.786 -308.784)" fill="none" stroke="#fff" stroke-linecap="round" stroke-width="15"/>
        <path id="Path_21" data-name="Path 21" d="M251.28,637.289c.633.5.144,1.488-.273,2.178a7.781,7.781,0,0,0-1.065,4.837c-.376.6-1.228-.241-1.3-.948A6.828,6.828,0,0,1,251.28,637.289Z" transform="translate(-160.997 -412.712)" fill="none" stroke="#fff" stroke-linecap="round" stroke-width="15"/>
        <path id="Path_25" data-name="Path 25" d="M270.436,25.366a1.99,1.99,0,0,1,2.45,1.464,2.4,2.4,0,0,1-2.469-1.292Z" transform="translate(-175.123 -16.377)" fill="none" stroke="#fff" stroke-linecap="round" stroke-width="15"/>
        <path id="Path_26" data-name="Path 26" d="M247.182,22.586c-.446.116-1.164-.028-1.02-.466.318-.441,1.183,0,1.017.514Z" transform="translate(-159.403 -14.207)" fill="none" stroke="#fff" stroke-linecap="round" stroke-width="15"/>
        <path id="Path_27" data-name="Path 27" d="M416.048,102.781a1.326,1.326,0,0,1,1.519-.522,1.023,1.023,0,0,1-1.444.443Z" transform="translate(-269.435 -66.179)" fill="none" stroke="#fff" stroke-linecap="round" stroke-width="15"/>
        <path id="Path_28" data-name="Path 28" d="M256.6,15.833a2.968,2.968,0,0,1-2.217-2.253l1.993.017-1.13-1.683a3.194,3.194,0,0,1,4.27.5,7.245,7.245,0,0,0,1.718,1.552c-.137-.476.571-.832,1-.589a1.731,1.731,0,0,1,.682,1.266,2.451,2.451,0,0,0,.521,1.365,3.207,3.207,0,0,1-3.642-1.711,2.08,2.08,0,0,1-2.566.467A1.635,1.635,0,0,0,256.6,15.833Z" transform="translate(-164.739 -7.327)" fill="none" stroke="#fff" stroke-linecap="round" stroke-width="15"/>
        <path id="Path_38" data-name="Path 38" d="M101.072-6.334" fill="none" stroke="#707070" stroke-width="1"/>
      </g>
      <g id="Group_14" data-name="Group 14" transform="translate(364.235 294.813)">
        <path id="Path_37" data-name="Path 37" d="M32.342,177.9l-9.7-37.148,9.7-53.422,29.6-8.958L97.8,76.408l48.906-14.943,25.736,16.9,7.862,41.962a8.417,8.417,0,0,1,5.633,4.846c1.859,4.14,1.8,11.713,1.8,11.713s1.045,16.115.594,23.668-2.4,6.545-2.4,6.545l1.8,17.639-7.437,23.137-20.7,32.675L148.339,252.99,131.5,259.1l-11.709,1.426-12.2-3.311-22.113-11.5L61.938,231.065,43.881,209.65,37.5,200.213l-5.158,2.725-4.413-2.725-9.97-15.472L12.329,167.1V161.08s5.3-7.145,10.307-2.941S32.342,177.9,32.342,177.9Z" transform="translate(2.894 14.426)" fill="#fff"/>
        <path id="Path_4-2" data-name="Path 4" d="M289.393,644.935c3.877,3.119,6.06,7.831,8.013,12.407s3.9,9.34,7.5,12.777,9.367,5.163,13.642,2.616c-3.388,2.735-8.521,2.453-12.272.242s-6.318-5.989-8.222-9.905-3.27-8.085-5.33-11.92a4.563,4.563,0,0,0-2.515-2.535A50.624,50.624,0,0,1,266.56,634.6l27.573-2.3c4.377-.365,8.806-.74,12.964-2.156l24.31-8.275c.483-.164,1.193-.22,1.331.271a.916.916,0,0,1-.058.521c-1.14,3.523-3.741,6.342-5.808,9.415S323.2,639,324.407,642.5a28.726,28.726,0,0,1,1.172,13.909l-3.288-18.483a3.843,3.843,0,0,0-.892-2.192c-.911-.868-2.371-.636-3.6-.347l-25.909,6.123a4.819,4.819,0,0,0-2.4,1.066,1.662,1.662,0,0,0-.1,2.361m31.655-17.015a58.677,58.677,0,0,1-25.385,7.551c-1.866.139-3.737.2-5.608.27l-9.844.344a11.54,11.54,0,0,0,6.006,1.426,73.785,73.785,0,0,0,26.6-3.921c4.172-1.43,8.471-3.451,10.757-7.222-.836.526-1.673,1.052-2.525,1.553m-4.746.134a1.466,1.466,0,0,0-1.231.831C315.719,628.947,316.69,628.563,316.3,628.054Z" transform="translate(-173.856 -405.521)"/>
        <path id="Path_5-2" data-name="Path 5" d="M191,582.819c-2.825,4.327-5.719,8.725-9.729,11.986-4.954,4.028-11.235,6.014-17.442,7.51-6.706,1.616-13.724,2.762-20.476,1.351-4.613-.964-8.893-3.078-13.115-5.173-11.61-5.759-23.282-11.556-33.767-19.174S76.646,562.1,71.14,550.367c-1.261-2.687-3.8-6.055-6.387-4.592-3.664,2.075-7.9-1.557-10.319-5A87.915,87.915,0,0,1,41.5,513.185c-.92-3.4-1.5-7.443.8-10.115A57.887,57.887,0,0,0,60.49,544.932c1.611,1.5,4.466-.2,4.871-2.362s-.713-4.286-1.719-6.246-1.953-4.225-1.213-6.3A125.156,125.156,0,0,0,81.2,562.1a85.635,85.635,0,0,0,13.711,13.839c5.831,4.563,12.389,8.091,18.911,11.6l14.674,7.887c4.691,2.521,9.45,5.069,14.636,6.281,6.733,1.574,13.82.8,20.527-.882,6.455-1.618,12.854-4.163,17.756-8.664,3.591-3.3,6.216-7.49,8.8-11.627l9.908-15.886c4.9-7.852,9.83-15.777,12.981-24.478s4.423-18.353,1.837-27.238c-.462-1.586-.551-3.991,1.091-4.17a55.163,55.163,0,0,1-.877,32.144c-2.376,7.047-6.156,13.528-10.05,19.864C200.527,568.2,195.765,575.513,191,582.819Z" transform="translate(-26.537 -328.114)"/>
        <path id="Path_6-2" data-name="Path 6" d="M408.346,454.571l1.538,1.316-3.334.778c-3.835.895-8.25,1.679-11.4-.69-3.336-2.513-3.625-7.326-3.614-11.5a18.011,18.011,0,0,0-2.96,10.358c-.28.51-1-.148-1.122-.717a12.7,12.7,0,0,1,2.29-9.76,20.853,20.853,0,0,1,7.934-6.423,31.391,31.391,0,0,1,28.785.764,5.06,5.06,0,0,1,2.151,1.888,1.95,1.95,0,0,1-.547,2.564c-.936.514-2.059-.124-2.964-.69a27.005,27.005,0,0,0-9.172-3.609A17.427,17.427,0,0,1,417.1,450c-.6,2.591-2.256,5.373-4.9,5.609a9.527,9.527,0,0,0,1.567-9.621,12.552,12.552,0,0,1-5.412,8.58m-9.7-14.6a2.791,2.791,0,1,0,2.638,3.014A2.9,2.9,0,0,0,398.65,439.968Z" transform="translate(-252.561 -283.591)"/>
        <path id="Path_7-2" data-name="Path 7" d="M192.727,432.388a80.438,80.438,0,0,0,17.246-1.149c1.34-.236,2.38,1.451,2.021,2.763a5.085,5.085,0,0,1-2.776,2.831c-10.918,5.806-24.8-.043-36.512,3.936-3.021,1.027-5.812,2.688-8.888,3.536-.626.173-1.468.22-1.751-.365-.245-.507.143-1.079.509-1.506,2.756-3.218,5.672-6.462,9.467-8.346C178.316,430.974,185.731,432.1,192.727,432.388Z" transform="translate(-105.654 -281.249)"/>
        <path id="Path_8-2" data-name="Path 8" d="M388.008,361.969l14.9-7.779c3.392-1.771,7.178-3.6,10.89-2.666,2.909.729,5.131,3.011,7.187,5.193a3.3,3.3,0,0,1,1.171,2.148c-.016.837-1.107,1.59-1.707,1.006-2.781-2.706-7.347-2.6-10.926-1.1s-6.555,4.12-9.876,6.125a32.006,32.006,0,0,1-10.413,4.009c-1.728.336-3.89.348-4.814-1.151a3.21,3.21,0,0,1,.48-3.574A9.414,9.414,0,0,1,388.008,361.969Z" transform="translate(-250.492 -229.109)"/>
        <path id="Path_9-2" data-name="Path 9" d="M208.317,518.16a75.976,75.976,0,0,1-33.455,5.282c-.863-.06-1.973-.379-2-1.244a187.845,187.845,0,0,0,40.228-8.677c.818-.273,1.877-.488,2.411.189A18.642,18.642,0,0,1,208.317,518.16Z" transform="translate(-112.747 -334.76)"/>
        <path id="Path_10-2" data-name="Path 10" d="M341.507,586.112a8.266,8.266,0,0,1-4.336-1.6,3.7,3.7,0,0,1-1.213-4.187c.793-.109,1.754-.151,2.224.5a7.869,7.869,0,0,0,5.145,2.922,16.912,16.912,0,0,0,6.028-.324c4.076-.82,8.541-2.785,9.734-6.768.868-2.9-.291-6-1.647-8.7.55-.59,1.488.139,1.891.839,2.177,3.784,2.452,9.013-.508,12.222a11.677,11.677,0,0,1-2.625,2.036A23.071,23.071,0,0,1,341.507,586.112Z" transform="translate(-218.953 -370.289)"/>
        <path id="Path_11-2" data-name="Path 11" d="M60.085,530.755a34.82,34.82,0,0,0-6.372-7.538,34.774,34.774,0,0,0-4.295-2.816L47.5,519.274c1.472-.837,3.333-.163,4.792.7a20.858,20.858,0,0,1,8.857,10.551Z" transform="translate(-30.98 -338.433)"/>
        <path id="Path_12-2" data-name="Path 12" d="M540.012,403.843a3.614,3.614,0,0,0-1.741,2.529l-1.072-.015a3.31,3.31,0,0,1,.429-3.052,13.022,13.022,0,0,0,1.563-2.8,3.813,3.813,0,0,0-1.6-4.179c.194-.691,1.266-.334,1.726.217,3.069,3.686,1.4,9.267,2.566,13.919l-1.376.082A22.714,22.714,0,0,0,540.012,403.843Z" transform="translate(-350.228 -258.247)"/>
        <path id="Path_13-2" data-name="Path 13" d="M427.719,733.725a25.518,25.518,0,0,0,2.2-9.383,2.49,2.49,0,0,1,.249-1.22.806.806,0,0,1,1.073-.337,20.414,20.414,0,0,1-2.489,10.866A.7.7,0,0,1,427.719,733.725Z" transform="translate(-278.968 -471.351)"/>
        <path id="Path_14-2" data-name="Path 14" d="M157.727,13.219c.686-3.5,6.5-3.392,8.191-.259s.237,7.094-1.986,9.878-5.174,4.973-7.07,7.988c8.4-1.635,16.972,3.846,21.262,11.25s5.091,16.3,5,24.858-.976,17.175.341,25.63c.806,5.173,2.43,10.234,2.652,15.465a70.341,70.341,0,0,1-.683,10.315,168.21,168.21,0,0,0,1.223,44.359c-3.691-8.825-4.312-18.57-5.8-28.02a150.289,150.289,0,0,0-7.732-29.391c-3.739-9.974-9.688-20.548-19.955-23.383-9.246-2.554-18.749,2.022-27.677,5.529a131.786,131.786,0,0,1-39.936,8.85c-9.253.574-18.64.179-27.685,2.212s-18.02,7.017-22.044,15.368c-2.81,5.832-2.9,12.554-2.932,19.028l-.13,25.164c-.049,9.463-.023,19.288,3.99,27.858,1.085,2.318,2.487,4.853,1.689,7.285s-5.256,2.952-5.462.4a34.225,34.225,0,0,0-9.346-20.756c-2.36-2.456-3.008-6.034-3.686-9.372a127.692,127.692,0,0,0-10.085-29.97c-2.953-6.13-6.5-12.479-5.908-19.258C4.873,103.682-2.385,93.037.825,82.93c1.307-4.117,4.285-8.49,2.3-12.328C.332,65.194,2.3,58.552,5.166,53.184a57.613,57.613,0,0,1,33.205-27.5c1.635-.512,3.882-.7,4.611.847l-2.165,5.1c10.871-8.534,26.5-9.819,36.249-19.615C81.706,7.355,85.531.557,92.088.031c8.228-.66,15.039,9.43,23.031,7.367a34.15,34.15,0,0,1,27.5,4.857c2.5,1.719,4.869,3.826,7.814,4.555s6.713-.613,7.3-3.59M74.856,16.77a21.331,21.331,0,0,0-4.651,5.017,5.971,5.971,0,0,0,2.673.086,3.3,3.3,0,0,0,1.068,1.39l.909-6.493m68.676,21.376c.745.76,1.587-1.46,2.622-1.209a3.814,3.814,0,0,0,.5.171c.44.043.684-.472.916-.848,1.483-2.4,5.908-.776,7.566-3.056a.621.621,0,0,1-.153,1.061,3.082,3.082,0,0,0,1.812.127c.581-.2,1.013-.937.676-1.452-1.286-1.433-3.58-1.112-5.436-.6a72.844,72.844,0,0,0-8.279,2.825,2.462,2.462,0,0,0-1.188.8.87.87,0,0,0,.237,1.252,2.441,2.441,0,0,1,1.891-1.079,1.837,1.837,0,0,1,.377,1.06,3.376,3.376,0,0,1-3.449.4l.671.962a3.756,3.756,0,0,0-1.324,1.038,1.286,1.286,0,0,0,0,1.568c.39.41,1.254.236,1.314-.327a.941.941,0,0,1-.351-1.049,2.74,2.74,0,0,0,1.6-1.639M83.214,9.347a2.879,2.879,0,0,0,3.552-.931c.938-.438,1.933.494,2.453,1.39s1.1,1.988,2.132,2.077a14.006,14.006,0,0,0,1.581-.221c.534-.015,1.166.414,1.008.924a3.081,3.081,0,0,0,.588,2.855c.82-.1.985-1.184,1.1-2s.94-1.8,1.574-1.269l.554,1.189a1.549,1.549,0,0,0-.72,1.03l1.255.373.44,3.462c1.079.262,1.333,1.658,1.368,2.768.813-.187.65-1.4.243-2.13s-.774-1.833-.042-2.234c-.855-.05-1.2-1.107-1.331-1.953L97.727,6.566c-.113-.739-.841-1.19-1.424-1.658S95.2,3.614,95.609,2.99l-2.95.669a1.722,1.722,0,0,1-.108-1.1c-1.929-.684-3.958.631-5.5,1.976a45.718,45.718,0,0,0-5.577,5.8c-.447.555-.872,1.4-.367,1.906.329.285.6-.379.715-.8a1.319,1.319,0,0,1,2.422.046,3.3,3.3,0,0,0-1.03-2.145m-39.4,35.92.908.955a5.2,5.2,0,0,1,4.365-.425,4.259,4.259,0,0,0-2.211-2.177l7.483-2.26L51.3,45.174a1.651,1.651,0,0,0-1.2-.193l.817,1.623,4.674-5.334c1.09,1.176,2.873,1.312,4.476,1.369l4.63.166c.479-.411-.249-1.1-.855-1.275a30.454,30.454,0,0,0-23.467,2.833,60.169,60.169,0,0,0-5.816,4L27.006,54a3.764,3.764,0,0,0-1.346,1.441l8.628-3.783c1.384-.607,2.876-1.314,3.536-2.673.727.142,1.88-.276,1.475-.9a1.573,1.573,0,0,1,1.238.239,2.463,2.463,0,0,0,.821-2.641,1.594,1.594,0,0,1,1.3.2,2.964,2.964,0,0,1,3.979-1.888l-2.827,1.26M159.522,17.628a2.731,2.731,0,0,0,1.41.107.94.94,0,0,0,.719-1.066c-1.065,1.158-3.718-.29-4.281,1.18-.41,1.069-1.76,1.418-2.9,1.364a9.1,9.1,0,0,0-3.407.024,13.612,13.612,0,0,0,9.535,1.725c1.012-.194,1.268-1.5,1.3-2.534a3.488,3.488,0,0,1-2.97.338l.6-1.138M40.433,32.256c-.242-.526-1.038-.262-1.5.081A58.87,58.87,0,0,0,28.84,41.752a10.944,10.944,0,0,0-2.7,4.752c2.015-.622,3.239-2.593,4.433-4.331a39.014,39.014,0,0,1,9.864-9.917M10.777,60.173a1.837,1.837,0,0,1,1.5-.929l-2.059-1.03a21.874,21.874,0,0,1,.245-8.242,13.174,13.174,0,0,0-2.238,5.674,1.539,1.539,0,0,0,.243,1.319,2.857,2.857,0,0,1,.665,2.864,8.772,8.772,0,0,0,2.307,2.044,10.106,10.106,0,0,0,3.931.937.7.7,0,0,0,.571-.11c.143-.14.043-.466-.151-.416l-5.013-2.112M124.2,13.053a4.194,4.194,0,0,0,3.8-.295,10.888,10.888,0,0,1,8.454-1.269,5.814,5.814,0,0,0-6.816-.8c-.4.236-.854-.148-1.247-.392s-1.136-.122-1.025.327c.174.705-.657,1.228-1.364,1.4s-1.573.345-1.8,1.035M117.581,9.8a35.9,35.9,0,0,0,3.595-.821,3.327,3.327,0,0,1,3.346,1c-.02-.6.893-.6,1.472-.437s1.52-.125,1.252-.666c-4.286-1.067-9.128-1.082-12.783,1.4.677-.185,1.312.365,1.986.559s1.634-.544,1.132-1.034m-63.745,19-3.8,2.407a2.482,2.482,0,0,0-.665.538,1.284,1.284,0,0,0,.2,1.716l2.554-1.349a3.352,3.352,0,0,0,1.713-3.313m39.222-4.82a2.468,2.468,0,0,0,.772-1.823,1.94,1.94,0,0,1-2.453-2.216c-.324-.425-.865.334-.782.862a4.244,4.244,0,0,0,2.464,3.177m60.16,14.57a1.923,1.923,0,0,0,.923-1.535c.266-.514,1.017-.024,1.4.413s1.371.558,1.275-.013a3.059,3.059,0,0,0-4.9.579l1.306.555m-31.1-22.533a2.094,2.094,0,0,0,2.288-2.166l-3.66,1.773a.872.872,0,0,0,1.372.5m41.8,2.133a3.769,3.769,0,0,0,.064-1.955c-.257-.609-1.339-.8-1.493-.154A3.084,3.084,0,0,1,163.2,19.4a1.726,1.726,0,0,0,.979-1.172m-46.773,3.049c.7-.165.48-1.442-.242-1.488a1.117,1.117,0,0,0-.931,1.553.765.765,0,0,0,1.157-.168M62.261,48.3A2.261,2.261,0,0,1,63.91,49.4c.572.093.845-.814.464-1.251a2.167,2.167,0,0,0-1.609-.511c-.363-.013-.864.393-.539.555M15.312,43.566a.494.494,0,0,0,.215-.8,8.587,8.587,0,0,0-2.5,3.569,5.182,5.182,0,0,0,2.1-2.779m71.717-27.9a1.386,1.386,0,0,0,.608,2.087l.512-1.25-1.188-.843m-32.661,30.3a3.45,3.45,0,0,0,2.278-1.755,5.375,5.375,0,0,0-2.5,1.5m5.606.381L58.43,46.4a1.957,1.957,0,0,0,1.934.488.779.779,0,0,0,0-1.036l-.881.105M66.279,44.1c.195.167.515-.089.492-.345a.864.864,0,0,0-.459-.583l-1.232.444a.718.718,0,0,0,1.224.542m2.889,1.188a.892.892,0,0,0-.335-1.079.678.678,0,0,0-.972.407,1.73,1.73,0,0,0,1.35.671M12.78,47.43c-.151-.4-.8-.362-1.053-.012a1.553,1.553,0,0,0-.109,1.247,2.288,2.288,0,0,0,.943-1.223M78.1,15.958l1.254-.841a.846.846,0,0,0-1.375,0,.9.9,0,0,0,.1.861m84.81-3.155c.1-.195-.278-.333-.41-.159a.629.629,0,0,0,.03.622,5.454,5.454,0,0,0,.831,1.315,4.146,4.146,0,0,0-.414-1.755M139.308,38.229c-.383-.108-.307.693.09.674s.622-.453.765-.825a.5.5,0,0,0-.814.156m20.774-4.895-.316,1.079c.373-.1.8-.254.925-.619s-.419-.8-.633-.481m-58.858-7.8a1.371,1.371,0,0,0-1.378,0,.743.743,0,0,0,1.328,0m17.05-7.647c.216-.293-.392-.586-.646-.324a.972.972,0,0,0,.219.945l.53-.53m-24.776-.772c.467.049.928-.615.536-.873-.373-.187-.575.455-.5.865m-3.167-1.7a.413.413,0,1,0,.393-.561l-.467.461m24.689-1.324c.064.516,1.013.5,1.059-.019a.765.765,0,0,0-1,.011Z" transform="translate(0 0)"/>
        <path id="Path_15-2" data-name="Path 15" d="M293.564,689.221c.393.328.827.771.707,1.269a38.034,38.034,0,0,1-9.213-7.36c.686-.317,1.449.2,2.029.681Z" transform="translate(-185.921 -445.489)"/>
        <path id="Path_16-2" data-name="Path 16" d="M535.987,483.787c.56-.128.888.6.986,1.169l1.521,8.748c-.172.523-.929-.047-1.082-.576A36.769,36.769,0,0,1,535.987,483.787Z" transform="translate(-349.583 -315.527)"/>
        <path id="Path_17-2" data-name="Path 17" d="M550.087,494.292a1.375,1.375,0,0,1-.962.173q-.133-3.216-.065-6.436a1.374,1.374,0,0,1,.962-.173Q550.155,491.072,550.087,494.292Z" transform="translate(-358.094 -318.175)"/>
        <path id="Path_20-2" data-name="Path 20" d="M534.841,478.659a1.251,1.251,0,0,1-.809-1.64.865.865,0,0,1,.828-.169,1.927,1.927,0,0,1,0,1.73Z" transform="translate(-348.251 -310.986)"/>
        <path id="Path_21-2" data-name="Path 21" d="M251.245,637.289c.625.492.142,1.468-.269,2.149a7.679,7.679,0,0,0-1.051,4.774c-.371.6-1.212-.238-1.286-.936A6.739,6.739,0,0,1,251.245,637.289Z" transform="translate(-162.145 -415.654)"/>
        <path id="Path_27-2" data-name="Path 27" d="M416.048,102.773a1.309,1.309,0,0,1,1.5-.515,1.01,1.01,0,0,1-1.425.437Z" transform="translate(-271.356 -66.65)"/>
      </g>
    </g>
  </g>
</svg>
